<svg width="35" height="35" viewBox="0 0 50 33" fill="none" xmlns="http://www.w3.org/2000/svg">
<path d="M46 0.523682H4C3.07174 0.523682 2.1815 0.858142 1.52513 1.45349C0.868749 2.04883 0.5 2.85629 0.5 3.69823V29.0947C0.5 29.9366 0.868749 30.7441 1.52513 31.3394C2.1815 31.9347 3.07174 32.2692 4 32.2692H46C46.9283 32.2692 47.8185 31.9347 48.4749 31.3394C49.1312 30.7441 49.5 29.9366 49.5 29.0947V3.69823C49.5 2.85629 49.1312 2.04883 48.4749 1.45349C47.8185 0.858142 46.9283 0.523682 46 0.523682ZM42.15 3.69823L25 14.46L7.85 3.69823H42.15ZM4 29.0947V5.14266L24.0025 17.698C24.2954 17.8823 24.6435 17.9811 25 17.9811C25.3565 17.9811 25.7046 17.8823 25.9975 17.698L46 5.14266V29.0947H4Z" fill="black"/>
</svg>
