<svg width="24" height="24" viewBox="0 0 45 46" fill="none" xmlns="http://www.w3.org/2000/svg">
<path d="M20.108 11.4801L13.342 3.67006C12.562 2.77006 11.132 2.77406 10.226 3.68206L4.66198 9.25606C3.00598 10.9141 2.53198 13.3761 3.48998 15.3501C9.21322 27.2 18.7701 36.7702 30.612 42.5101C32.584 43.4681 35.044 42.9941 36.7 41.3361L42.316 35.7101C43.226 34.8001 43.228 33.3621 42.32 32.5821L34.48 25.8521C33.66 25.1481 32.386 25.2401 31.564 26.0641L28.836 28.7961C28.6963 28.9424 28.5125 29.0389 28.3127 29.0707C28.1129 29.1025 27.9082 29.0679 27.73 28.9721C23.2709 26.4043 19.572 22.7005 17.01 18.2381C16.914 18.0596 16.8793 17.8545 16.9111 17.6544C16.9429 17.4542 17.0394 17.27 17.186 17.1301L19.906 14.4081C20.73 13.5801 20.82 12.3001 20.108 11.4781V11.4801Z" stroke="black" stroke-width="4" stroke-linecap="round" stroke-linejoin="round"/>
</svg>
